# xmcd
#
# Track frame offsets: 
#        150
#        16708
#        37796
#        54838
#        72145
#        87987
#        101852
#        119095
#        139608
#        165900
#        184143
#        207183
#        226758
#        247958
#        269833
#        289140
#        310055
#        320707
#
# Disc length: 4546 seconds
#
# Revision: 4
# Processed by: cddbd v1.5.2PL0 Copyright (c) Steve Scherf et al.
# Submitted via: ExactAudioCopy v1.0b3
#
DISCID=f511c012
DTITLE=Various Artist - WOMAN 6 Disc.2
DYEAR=2004
DGENRE=Pop
TTITLE0=Hayley Westenra - Amazing Grace
TTITLE1=Celine Dion - My Heart Will Go On
TTITLE2=Sheryl Crow - The First Cut Is The Deepest
TTITLE3=Britney Spears - I'm Not A Girl, Not Yet A Woman
TTITLE4=Amiel - Lovesong (censored version)
TTITLE5=Katy Rose - Teachin' Myself To Dream (Radio Edit)
TTITLE6=Gloria Estefan - Reach
TTITLE7=Lauryn Hill - To Zion (feat.Carlos Santana)
TTITLE8=Erykah Badu - Danger
TTITLE9=Amel Larrieux - Get Up
TTITLE10=Fiona Apple - Across The Universe
TTITLE11=Bjork - New World
TTITLE12=Sissel - Ave Maria
TTITLE13=Rickie Lee Jones - Second Chance
TTITLE14=Swing Out Sister - Love Won't Let You Down
TTITLE15=Matt Bianco - Ordinary Day
TTITLE16=Jane Birkin - L'aquoiboniste
TTITLE17=Sarah MacLachlan - Angel
EXTD=YEAR: 2004
EXTT0=
EXTT1=
EXTT2=
EXTT3=
EXTT4=
EXTT5=
EXTT6=
EXTT7=
EXTT8=
EXTT9=
EXTT10=
EXTT11=
EXTT12=
EXTT13=
EXTT14=
EXTT15=
EXTT16=
EXTT17=
PLAYORDER=
